<svg width="42" height="42" viewBox="0 0 42 42" fill="none" xmlns="http://www.w3.org/2000/svg">
<path fill-rule="evenodd" clip-rule="evenodd" d="M5.90902 5.90901C6.7877 5.03033 8.21232 5.03033 9.091 5.90901L21 17.818L32.909 5.90901C33.7877 5.03033 35.2123 5.03033 36.091 5.90901C36.9697 6.78769 36.9697 8.2123 36.091 9.09098L24.182 21L36.091 32.909C36.9697 33.7877 36.9697 35.2123 36.091 36.091C35.2123 36.9697 33.7877 36.9697 32.909 36.091L21 24.182L9.09099 36.091C8.21231 36.9697 6.78769 36.9697 5.90901 36.091C5.03033 35.2123 5.03033 33.7877 5.90901 32.909L17.818 21L5.90902 9.09099C5.03034 8.21231 5.03034 6.78769 5.90902 5.90901Z" fill="#4D5061"/>
</svg>
